<svg width="118" height="118" viewBox="0 0 118 118" fill="none" xmlns="http://www.w3.org/2000/svg">
<mask id="mask0_760_4599" style="mask-type:alpha" maskUnits="userSpaceOnUse" x="0" y="0" width="118" height="118">
<path d="M0 46.046C0 29.7586 0 21.6148 3.21998 15.4161C5.93342 10.1925 10.1925 5.93342 15.4161 3.21998C21.6148 0 29.7586 0 46.046 0H71.954C88.2414 0 96.3851 0 102.584 3.21998C107.807 5.93342 112.067 10.1925 114.78 15.4161C118 21.6148 118 29.7586 118 46.046V71.954C118 88.2414 118 96.3851 114.78 102.584C112.067 107.807 107.807 112.067 102.584 114.78C96.3851 118 88.2414 118 71.954 118H46.046C29.7586 118 21.6148 118 15.4161 114.78C10.1925 112.067 5.93342 107.807 3.21998 102.584C0 96.3851 0 88.2414 0 71.954V46.046Z" fill="#C4C4C4"/>
</mask>
<g mask="url(#mask0_760_4599)">
<rect width="118" height="118" fill="url(#paint0_linear_760_4599)"/>
<g filter="url(#filter0_d_760_4599)">
<path fill-rule="evenodd" clip-rule="evenodd" d="M62.2888 52.9385L58.3235 56.6387L50.6719 64.2211C50.2407 64.8566 49.814 65.4938 49.3916 66.1328C48.3545 67.7036 47.4787 69.0883 46.7639 70.287C46.6504 70.4778 46.5379 70.669 46.4267 70.8606L43.907 75.069C43.3891 75.8932 42.9254 76.5236 42.5158 76.96C42.4181 77.065 42.3142 77.1664 42.2043 77.2639C41.8062 77.6139 41.2526 77.8339 40.6545 77.8798C40.5185 77.8925 40.3816 77.8987 40.2446 77.8984C39.4309 77.9001 38.624 77.7834 37.8654 77.5544C37.4082 77.4182 36.9692 77.2478 36.5545 77.0454C36.3199 76.9301 36.0952 76.8031 35.8818 76.665C35.537 76.4427 35.2237 76.1924 34.9473 75.9183C34.3887 75.3551 34.1094 74.7574 34.1094 74.1254C34.1128 74.0221 34.1311 73.9194 34.1638 73.8193C34.2645 73.4834 34.5056 73.0042 34.8871 72.3815C34.9683 72.2487 35.0511 72.1164 35.1356 71.9848L36.909 69.0462C37.0575 68.8145 37.203 68.5817 37.3456 68.3478C37.8011 67.6042 38.3085 66.7245 38.8677 65.7086L41.481 60.7386C42.1221 59.4949 42.7458 58.2459 43.3519 56.9916C45.775 51.9644 46.9866 48.6058 46.9866 46.9157C46.9902 46.5933 46.9444 46.2718 46.8499 45.9579C46.6785 45.3523 46.2295 44.8159 45.5868 44.4489L44.6533 43.9407C44.4822 43.8457 44.3539 43.7113 44.2863 43.5565C44.243 43.4649 44.214 43.3621 44.1994 43.2482C44.191 43.183 44.1868 43.1175 44.187 43.052C44.1892 42.7561 44.2907 42.4657 44.4813 42.2095C44.5776 42.0771 44.6899 41.9522 44.8166 41.8365C45.0755 41.6006 45.3689 41.3892 45.6909 41.2064C45.9398 41.0641 46.201 40.9353 46.4725 40.8208C47.2423 40.5103 48.0611 40.2797 48.9081 40.135C49.4952 40.0365 50.0942 39.9867 50.6948 39.9864C51.0969 39.9855 51.4988 39.9966 51.8997 40.0198C52.7488 40.0713 53.4438 40.181 53.9846 40.349C54.4268 40.4846 54.8475 40.6594 55.2382 40.8698C55.4904 41.0065 55.7267 41.1602 55.9443 41.329C56.2807 41.5731 56.5854 41.8424 56.854 42.1329C57.398 42.7308 57.67 43.3455 57.67 43.9771C57.67 44.8964 57.5222 45.8217 57.2266 46.753C56.9403 47.6497 56.5946 48.5343 56.1908 49.4033C56.1631 49.463 56.135 49.5227 56.1068 49.5823C55.6558 50.5378 55.1815 51.475 54.684 52.3939C54.1865 53.3132 53.7355 54.1115 53.3311 54.7886L52.3985 56.3489C52.379 56.3791 52.3595 56.4093 52.3402 56.4396C52.1421 56.7506 52.0981 56.8425 52.2083 56.7152C52.2093 56.714 52.2103 56.7127 52.2112 56.7115C55.0318 53.6686 57.0635 51.5137 58.3063 50.2466C58.5421 50.0052 58.781 49.7657 59.0229 49.5281L62.2888 46.4803C64.1316 44.806 65.6703 43.5682 66.9048 42.7667C67.2331 42.5509 67.5767 42.3495 67.9339 42.1634C68.5729 41.8262 69.2285 41.5084 69.8993 41.2109C71.2122 40.6333 72.3585 40.2601 73.3382 40.0911C73.708 40.0245 74.086 39.9894 74.4656 39.9864C75.7116 39.9864 76.8037 40.0832 77.742 40.2769C77.9912 40.3281 78.237 40.3886 78.4787 40.4582C79.4662 40.7377 80.3789 41.1563 81.1713 41.6931C81.2228 41.7282 81.2738 41.7639 81.3242 41.8001C83.0351 43.034 83.8906 44.6062 83.8906 46.5167C83.882 47.7448 83.6668 48.9668 83.2505 50.1515C82.9728 50.9528 82.6255 51.7384 82.2109 52.5031C81.9437 52.9996 81.673 53.495 81.3987 53.9891C80.6139 55.4018 79.9126 56.5934 79.2947 57.5637C78.4685 58.8609 77.6829 60.1734 76.9385 61.5002C76.4137 62.4044 75.917 63.3183 75.4488 64.2411C74.1398 66.8377 73.4703 68.8307 73.4404 70.2201C73.4397 70.2521 73.4394 70.284 73.4394 70.316C73.4263 70.5191 73.4909 70.7207 73.6251 70.8953C73.7593 71.0699 73.957 71.2096 74.1933 71.2968C74.5679 71.4488 75.0822 71.5323 75.7364 71.5471C75.8106 71.549 75.8848 71.55 75.9591 71.5501C76.7989 71.5546 77.6343 71.455 78.4338 71.2551C78.8105 71.1594 79.1765 71.0396 79.5278 70.897C80.3763 70.5528 80.9866 70.3445 81.3586 70.2721C81.4387 70.2552 81.5211 70.2458 81.6041 70.2439C82.1227 70.2439 82.4354 70.4037 82.5424 70.7232C82.5714 70.8155 82.5852 70.9104 82.5835 71.0055C82.5849 71.7854 82.3828 72.5575 81.9894 73.275C81.5961 73.9924 81.0197 74.6404 80.2951 75.1797C79.6998 75.6423 79.044 76.0552 78.3383 76.4116C77.0088 77.1061 75.7556 77.5573 74.5784 77.7654C74.0977 77.8521 73.6061 77.8968 73.1127 77.8984C72.5772 77.8996 72.0419 77.8825 71.5084 77.8471C70.979 77.811 70.4895 77.7555 70.0398 77.6807C69.746 77.6323 69.4558 77.5718 69.1703 77.4994C68.1288 77.2334 67.2036 76.8101 66.3946 76.2296C65.0673 75.2969 64.1757 74.048 63.8596 72.6787C63.7104 72.0797 63.6375 71.4707 63.6418 70.8606C63.653 69.8059 63.7877 68.7542 64.0441 67.7184C64.5562 65.5607 65.5576 63.1011 67.0481 60.3396C68.6967 57.4612 69.863 55.49 70.5471 54.426L72.1333 51.85C72.9403 50.5547 73.4095 49.488 73.5407 48.6499C73.5658 48.4958 73.5789 48.3407 73.5799 48.1855C73.5896 47.9412 73.5066 47.7 73.341 47.4923C73.0677 47.1658 72.5588 46.9625 71.8141 46.8822C71.5487 46.8552 71.2812 46.8423 71.0134 46.8436C70.1178 46.8436 68.8731 47.4645 67.2794 48.7063C67.1542 48.8039 67.0303 48.9025 66.9077 49.002C66.1686 49.6014 65.4376 50.2067 64.7148 50.818C64.053 51.3782 63.4325 51.9159 62.8535 52.431C62.6642 52.5995 62.476 52.7686 62.2888 52.9385Z" fill="#F2F2F2"/>
<path fill-rule="evenodd" clip-rule="evenodd" d="M62.2888 52.9385L58.3235 56.6387L50.6719 64.2211C50.2407 64.8566 49.814 65.4938 49.3916 66.1328C48.3545 67.7036 47.4787 69.0883 46.7639 70.287C46.6504 70.4778 46.5379 70.669 46.4267 70.8606L43.907 75.069C43.3891 75.8932 42.9254 76.5236 42.5158 76.96C42.4181 77.065 42.3142 77.1664 42.2043 77.2639C41.8062 77.6139 41.2526 77.8339 40.6545 77.8798C40.5185 77.8925 40.3816 77.8987 40.2446 77.8984C39.4309 77.9001 38.624 77.7834 37.8654 77.5544C37.4082 77.4182 36.9692 77.2478 36.5545 77.0454C36.3199 76.9301 36.0952 76.8031 35.8818 76.665C35.537 76.4427 35.2237 76.1924 34.9473 75.9183C34.3887 75.3551 34.1094 74.7574 34.1094 74.1254C34.1128 74.0221 34.1311 73.9194 34.1638 73.8193C34.2645 73.4834 34.5056 73.0042 34.8871 72.3815C34.9683 72.2487 35.0511 72.1164 35.1356 71.9848L36.909 69.0462C37.0575 68.8145 37.203 68.5817 37.3456 68.3478C37.8011 67.6042 38.3085 66.7245 38.8677 65.7086L41.481 60.7386C42.1221 59.4949 42.7458 58.2459 43.3519 56.9916C45.775 51.9644 46.9866 48.6058 46.9866 46.9157C46.9902 46.5933 46.9444 46.2718 46.8499 45.9579C46.6785 45.3523 46.2295 44.8159 45.5868 44.4489L44.6533 43.9407C44.4822 43.8457 44.3539 43.7113 44.2863 43.5565C44.243 43.4649 44.214 43.3621 44.1994 43.2482C44.191 43.183 44.1868 43.1175 44.187 43.052C44.1892 42.7561 44.2907 42.4657 44.4813 42.2095C44.5776 42.0771 44.6899 41.9522 44.8166 41.8365C45.0755 41.6006 45.3689 41.3892 45.6909 41.2064C45.9398 41.0641 46.201 40.9353 46.4725 40.8208C47.2423 40.5103 48.0611 40.2797 48.9081 40.135C49.4952 40.0365 50.0942 39.9867 50.6948 39.9864C51.0969 39.9855 51.4988 39.9966 51.8997 40.0198C52.7488 40.0713 53.4438 40.181 53.9846 40.349C54.4268 40.4846 54.8475 40.6594 55.2382 40.8698C55.4904 41.0065 55.7267 41.1602 55.9443 41.329C56.2807 41.5731 56.5854 41.8424 56.854 42.1329C57.398 42.7308 57.67 43.3455 57.67 43.9771C57.67 44.8964 57.5222 45.8217 57.2266 46.753C56.9403 47.6497 56.5946 48.5343 56.1908 49.4033C56.1631 49.463 56.135 49.5227 56.1068 49.5823C55.6558 50.5378 55.1815 51.475 54.684 52.3939C54.1865 53.3132 53.7355 54.1115 53.3311 54.7886L52.3985 56.3489C52.379 56.3791 52.3595 56.4093 52.3402 56.4396C52.1421 56.7506 52.0981 56.8425 52.2083 56.7152C52.2093 56.714 52.2103 56.7127 52.2112 56.7115C55.0318 53.6686 57.0635 51.5137 58.3063 50.2466C58.5421 50.0052 58.781 49.7657 59.0229 49.5281L62.2888 46.4803C64.1316 44.806 65.6703 43.5682 66.9048 42.7667C67.2331 42.5509 67.5767 42.3495 67.9339 42.1634C68.5729 41.8262 69.2285 41.5084 69.8993 41.2109C71.2122 40.6333 72.3585 40.2601 73.3382 40.0911C73.708 40.0245 74.086 39.9894 74.4656 39.9864C75.7116 39.9864 76.8037 40.0832 77.742 40.2769C77.9912 40.3281 78.237 40.3886 78.4787 40.4582C79.4662 40.7377 80.3789 41.1563 81.1713 41.6931C81.2228 41.7282 81.2738 41.7639 81.3242 41.8001C83.0351 43.034 83.8906 44.6062 83.8906 46.5167C83.882 47.7448 83.6668 48.9668 83.2505 50.1515C82.9728 50.9528 82.6255 51.7384 82.2109 52.5031C81.9437 52.9996 81.673 53.495 81.3987 53.9891C80.6139 55.4018 79.9126 56.5934 79.2947 57.5637C78.4685 58.8609 77.6829 60.1734 76.9385 61.5002C76.4137 62.4044 75.917 63.3183 75.4488 64.2411C74.1398 66.8377 73.4703 68.8307 73.4404 70.2201C73.4397 70.2521 73.4394 70.284 73.4394 70.316C73.4263 70.5191 73.4909 70.7207 73.6251 70.8953C73.7593 71.0699 73.957 71.2096 74.1933 71.2968C74.5679 71.4488 75.0822 71.5323 75.7364 71.5471C75.8106 71.549 75.8848 71.55 75.9591 71.5501C76.7989 71.5546 77.6343 71.455 78.4338 71.2551C78.8105 71.1594 79.1765 71.0396 79.5278 70.897C80.3763 70.5528 80.9866 70.3445 81.3586 70.2721C81.4387 70.2552 81.5211 70.2458 81.6041 70.2439C82.1227 70.2439 82.4354 70.4037 82.5424 70.7232C82.5714 70.8155 82.5852 70.9104 82.5835 71.0055C82.5849 71.7854 82.3828 72.5575 81.9894 73.275C81.5961 73.9924 81.0197 74.6404 80.2951 75.1797C79.6998 75.6423 79.044 76.0552 78.3383 76.4116C77.0088 77.1061 75.7556 77.5573 74.5784 77.7654C74.0977 77.8521 73.6061 77.8968 73.1127 77.8984C72.5772 77.8996 72.0419 77.8825 71.5084 77.8471C70.979 77.811 70.4895 77.7555 70.0398 77.6807C69.746 77.6323 69.4558 77.5718 69.1703 77.4994C68.1288 77.2334 67.2036 76.8101 66.3946 76.2296C65.0673 75.2969 64.1757 74.048 63.8596 72.6787C63.7104 72.0797 63.6375 71.4707 63.6418 70.8606C63.653 69.8059 63.7877 68.7542 64.0441 67.7184C64.5562 65.5607 65.5576 63.1011 67.0481 60.3396C68.6967 57.4612 69.863 55.49 70.5471 54.426L72.1333 51.85C72.9403 50.5547 73.4095 49.488 73.5407 48.6499C73.5658 48.4958 73.5789 48.3407 73.5799 48.1855C73.5896 47.9412 73.5066 47.7 73.341 47.4923C73.0677 47.1658 72.5588 46.9625 71.8141 46.8822C71.5487 46.8552 71.2812 46.8423 71.0134 46.8436C70.1178 46.8436 68.8731 47.4645 67.2794 48.7063C67.1542 48.8039 67.0303 48.9025 66.9077 49.002C66.1686 49.6014 65.4376 50.2067 64.7148 50.818C64.053 51.3782 63.4325 51.9159 62.8535 52.431C62.6642 52.5995 62.476 52.7686 62.2888 52.9385Z" stroke="url(#paint1_linear_760_4599)" stroke-width="0.108883" stroke-linecap="round"/>
</g>
</g>
<defs>
<filter id="filter0_d_760_4599" x="33.594" y="39.9319" width="50.812" height="40.5562" filterUnits="userSpaceOnUse" color-interpolation-filters="sRGB">
<feFlood flood-opacity="0" result="BackgroundImageFix"/>
<feColorMatrix in="SourceAlpha" type="matrix" values="0 0 0 0 0 0 0 0 0 0 0 0 0 0 0 0 0 0 127 0" result="hardAlpha"/>
<feOffset dy="2.07422"/>
<feGaussianBlur stdDeviation="0.230469"/>
<feComposite in2="hardAlpha" operator="out"/>
<feColorMatrix type="matrix" values="0 0 0 0 0 0 0 0 0 0 0 0 0 0 0 0 0 0 0.25 0"/>
<feBlend mode="normal" in2="BackgroundImageFix" result="effect1_dropShadow_760_4599"/>
<feBlend mode="normal" in="SourceGraphic" in2="effect1_dropShadow_760_4599" result="shape"/>
</filter>
<linearGradient id="paint0_linear_760_4599" x1="59" y1="0" x2="59" y2="118" gradientUnits="userSpaceOnUse">
<stop stop-color="#7A43A5"/>
<stop offset="1"/>
</linearGradient>
<linearGradient id="paint1_linear_760_4599" x1="59" y1="39.9863" x2="59" y2="77.8984" gradientUnits="userSpaceOnUse">
<stop stop-color="#7A43A5"/>
<stop offset="1"/>
</linearGradient>
</defs>
</svg>
